<svg height="511pt" viewBox="0 -9 511.99985 511" width="511pt" xmlns="http://www.w3.org/2000/svg"><g fill-rule="evenodd"><path d="m83.238281 138.398438c-7.988281 3.554687-13.628906 11.609374-13.628906 20.921874v15.132813c0 12.582031 10.277344 22.871094 22.878906 22.871094h16.921875c-.085937-1.429688 25.605469-30.394531 25.605469-30.394531l-25.746094-30.480469h-16.78125c-3.292969 0-6.414062.691406-9.25 1.949219zm0 0" fill="#f78411"/><path d="m343.480469 138.140625c8.019531 3.585937 13.632812 11.636719 13.632812 20.921875v15.132812c0 12.582032-10.28125 22.871094-22.851562 22.871094h-16.953125c.085937-1.429687-23.324219-30.4375-23.324219-30.4375l23.46875-30.4375h16.808594c3.261719 0 6.382812.691406 9.21875 1.949219zm0 0" fill="#f78411"/><path d="m110.902344 207.730469c5.410156 25.132812 23.707031 52.074219 47.820312 70.191406 8.878906 6.707031 18.585938 12.207031 28.691406 15.960937 18.902344 7.023438 33.132813 6.996094 52.003907-.054687 8.59375-3.183594 16.894531-7.652344 24.628906-13.042969 26.058594-18.054687 46.074219-46.574218 51.773437-73.054687 1.058594-4.988281 1.628907-9.917969 1.628907-14.675781v-56.605469l-104.089844-37.714844-104.089844 37.714844v56.605469c0 4.757812.570313 9.6875 1.632813 14.675781zm0 0" fill="#ffdda6"/><path d="m164.078125 54.796875c-31.242187 13.726563-54.808594 41.128906-54.808594 81.652344 90.917969-24.53125 83.53125 47.433593 208.179688 0 0-82.828125-91.691407-108.792969-153.371094-81.652344zm0 0" fill="#808080"/><path d="m199.414062 45.339844c42.753907 5.015625 81.640626 31.296875 86.878907 79.820312.375 3.640625.574219 7.394532.574219 11.289063v10.03125c9.25-2.464844 19.386718-5.789063 30.582031-10.03125 0-67.980469-61.765625-97.671875-118.035157-91.109375zm0 0" fill="#666"/><path d="m286.867188 160.039062v33.015626c0 4.757812-.542969 9.6875-1.632813 14.675781-4.667969 21.808593-19.070313 44.96875-38.542969 62.566406-4.207031 3.78125-8.617187 7.308594-13.230468 10.488281-7.730469 5.390625-16.007813 9.859375-24.597657 13.042969-3.75 1.402344-7.332031 2.519531-10.796875 3.378906 14.003906 3.414063 26.175782 2.296875 41.351563-3.378906 8.589843-3.183594 16.894531-7.652344 24.625-13.042969 26.0625-18.054687 46.078125-46.574218 51.773437-73.054687 1.0625-4.988281 1.632813-9.917969 1.632813-14.675781v-56.605469c-11.195313 4.242187-21.332031 7.566406-30.582031 10.03125zm0 0" fill="#fcc368"/><path d="m298.863281 296.230469c-21.765625 60.820312-142.460937 60.847656-174.675781 1.152343 6.800781-1.433593 12.140625-4.378906 16.527344-8.289062 4.921875-4.398438 8.617187-10.039062 11.769531-16.15625 2.03125 1.71875 4.089844 3.40625 6.238281 4.988281 8.878906 6.699219 18.585938 12.207031 28.695313 15.957031 3.71875 1.378907 7.246093 2.5 10.648437 3.328126 14.003906 3.410156 26.171875 2.289062 41.351563-3.378907 8.585937-3.1875 16.894531-7.65625 24.625-13.046875 3.667969-2.519531 7.21875-5.300781 10.625-8.226562 4.222656 8.265625 9.398437 15.664062 17.167969 20.40625 2.128906 1.296875 4.46875 2.394531 7.027343 3.265625zm0 0" fill="#fcc368"/><path d="m29.144531 360.550781-20.617187 87.296875c-5.667969 24.105469 14.058594 39.039063 35.59375 39.039063h339.105468c21.535157 0 41.261719-14.933594 35.566407-39.039063l-20.589844-87.296875c-10.507813-44.511719-39.859375-59.988281-86.882813-62.195312-4.667968-.144531-8.789062-.886719-12.457031-2.121094-2.917969 8.140625-7.617187 15.191406-13.601562 21.152344-38.914063 38.605469-133.183594 31.699219-161.074219-20.003907-2.519531.542969-5.242188.886719-8.191406.972657-46.988282 2.207031-76.339844 17.683593-86.851563 62.195312zm0 0" fill="#64b0d9"/><path d="m298.867188 296.234375c-2.921876 8.140625-7.617188 15.191406-13.601563 21.152344 4.667969.515625 23.566406 4.296875 28.261719 4.441406 39 8.023437 45.960937 12.523437 53.175781 40.324219l31.671875 122.125c3.492188-1.546875 7.386719-3.179688 11.195312-6.363282 8.019532-6.734374 12.285157-17.082031 9.222657-30.066406l-20.589844-87.296875c-10.507813-44.511719-39.859375-59.988281-86.878906-62.195312-4.667969-.144531-8.792969-.886719-12.457031-2.121094zm0 0" fill="#4a83c9"/><path d="m274.667969 272.5625c0-.003906 0-.003906 0-.007812-3.40625 2.929687-6.957031 5.710937-10.628907 8.230468-7.726562 5.386719-16.035156 9.855469-24.625 13.046875-15.175781 5.667969-27.34375 6.789063-41.351562 3.378907-3.398438-.832032-6.925781-1.949219-10.648438-3.328126-10.105468-3.75-19.8125-9.261718-28.691406-15.957031-2.152344-1.582031-4.210937-3.269531-6.238281-4.992187-3.152344 6.121094-6.851563 11.757812-11.769531 16.160156 4.21875 3.347656 8.65625 6.496094 13.277344 9.425781 10.539062 6.710938 22.046874 12.207031 34.042968 15.96875 22.425782 7.019531 39.300782 6.988281 61.695313-.0625 4.65625-1.449219 10.59375-6.113281 18.871093-1.082031 3.542969 2.152344 7.792969 3.667969 12.910157 3.839844 1.257812.058594 2.488281.117187 3.75.203125 5.984375-5.960938 10.679687-13.011719 13.601562-21.152344-11.882812-4.011719-18.8125-13.125-24.195312-23.671875zm0 0" fill="#eda93b"/><path d="m353.988281 259.117188c0 11.179687 13.34375 17.167968 29.78125 13.359374 16.46875-3.8125 29.8125-15.996093 29.8125-27.199218 0-5.363282-3.09375-9.515625-8.078125-11.980469-5.4375-2.695313-13.171875-3.355469-21.734375-1.375-16.4375 3.808594-29.78125 15.992187-29.78125 27.195313zm0 0" fill="#f78411"/><path d="m444.851562 226.445312c0 11.207032 13.34375 17.167969 29.78125 13.355469 16.464844-3.8125 29.78125-15.992187 29.78125-27.167969 0-6.019531-3.808593-10.519531-9.910156-12.8125-5.269531-1.976562-12.226562-2.320312-19.871094-.542968-16.4375 3.808594-29.78125 15.960937-29.78125 27.167968zm0 0" fill="#f78411"/><path d="m69.609375 174.453125c0 12.582031 10.277344 22.871094 22.878906 22.871094h16.921875c-.085937-1.429688-.140625-2.863281-.140625-4.269531v-17.566407h-16.78125c-11.453125 0-20.992187-8.511719-22.621093-19.519531-.171876 1.089844-.257813 2.207031-.257813 3.351562zm0 0" fill="#f74311"/><path d="m357.109375 174.195312c0 12.582032-10.277344 22.871094-22.847656 22.871094h-16.953125c.085937-1.429687.140625-2.835937.140625-4.269531v-17.566406h16.8125c11.425781 0 20.960937-8.511719 22.59375-19.519531.171875 1.089843.257812 2.207031.257812 3.351562v15.132812zm0 0" fill="#f74311"/></g><path d="m504.207031 196.707031c-.671875-.53125-1.382812-1.019531-2.113281-1.484375v-52.035156c0-4.398438-2.015625-8.660156-5.390625-11.402344-2.957031-2.398437-6.710937-3.339844-10.296875-2.589844l-75.839844 15.792969c-7.648437 1.609375-12.589844 7.109375-12.589844 14.019531v64.476563c-4.910156-.53125-10.296874-.171875-15.894531 1.132813-19.972656 4.636718-35.621093 19.800781-35.621093 34.53125 0 6.292968 2.769531 11.957031 7.792968 15.953124 5.082032 4.035157 12.007813 6.125 19.847656 6.125 3.636719 0 7.46875-.449218 11.402344-1.359374 19.984375-4.628907 35.636719-19.796876 35.636719-34.535157 0-6.308593-2.777344-11.984375-7.816406-15.980469-.074219-.0625-.15625-.113281-.230469-.171874v-69.234376c.152344-.058593.34375-.113281.566406-.160156l73.316406-15.269531v46.15625c-4.394531-.273437-9.125.132813-14.023437 1.269531-19.980469 4.628906-35.628906 19.796875-35.628906 34.535156 0 6.300782 2.769531 11.972657 7.800781 15.972657 5.078125 4.039062 12.003906 6.128906 19.851562 6.128906 3.636719 0 7.46875-.449219 11.402344-1.359375 19.976563-4.667969 35.621094-19.847656 35.621094-34.558594 0-6.296875-2.769531-11.960937-7.792969-15.953125zm-122.113281 68.433594c-9.183594 2.128906-15.671875.324219-18.433594-1.871094-1.421875-1.128906-2.082031-2.441406-2.082031-4.121093 0-6.730469 10.234375-16.632813 23.929687-19.808594h.007813c2.90625-.679688 5.539063-.960938 7.871094-.960938 5.03125 0 8.65625 1.3125 10.542969 2.8125 1.429687 1.132813 2.09375 2.449219 2.09375 4.140625 0 6.738281-10.234376 16.636719-23.929688 19.808594zm90.863281-32.644531c-9.183593 2.125-15.667969.316406-18.429687-1.878906-1.425782-1.136719-2.089844-2.453126-2.089844-4.144532 0-6.734375 10.230469-16.636718 23.925781-19.808594h.003907c2.898437-.671874 5.523437-.949218 7.851562-.949218 5.054688 0 8.691406 1.320312 10.582031 2.824218 1.421875 1.128907 2.082031 2.4375 2.082031 4.121094.003907 6.726563-10.238281 16.636719-23.925781 19.835938zm0 0"/><path d="m174.15625 178.910156c-4.214844.003906-14.648438.742188-20.535156 7.433594-2.757813 3.136719-2.453125 7.910156.683594 10.667969 1.433593 1.261719 3.214843 1.882812 4.988281 1.882812 2.097656 0 4.183593-.867187 5.675781-2.566406.816406-.925781 4.304688-2.296875 9.207031-2.304687h.039063c4.914062 0 8.429687 1.382812 9.257812 2.320312 2.765625 3.125 7.542969 3.417969 10.667969.652344 3.128906-2.765625 3.417969-7.542969.652344-10.667969-5.9375-6.710937-16.367188-7.402344-20.636719-7.417969zm0 0"/><path d="m249.917969 178.910156c-.015625 0-.03125 0-.050781 0-4.210938.003906-14.644532.742188-20.535157 7.433594-2.753906 3.136719-2.449219 7.910156.683594 10.667969 1.4375 1.261719 3.214844 1.882812 4.988281 1.882812 2.097656 0 4.183594-.867187 5.679688-2.566406.8125-.925781 4.300781-2.296875 9.207031-2.304687h.035156c4.917969 0 8.429688 1.382812 9.261719 2.320312 2.761719 3.125 7.539062 3.417969 10.667969.652344 3.125-2.765625 3.417969-7.542969.652343-10.667969-5.914062-6.683594-16.328124-7.417969-20.589843-7.417969zm0 0"/><path d="m405.585938 358.871094c-5.566407-23.597656-16.332032-40.449219-32.90625-51.519532-14.96875-10-34.34375-15.238281-60.972657-16.488281-.035156 0-.070312-.003906-.105469-.003906-3.785156-.125-7.082031-.703125-10.023437-1.652344-.046875-.019531-.089844-.042969-.136719-.058593-.210937-.078126-.425781-.136719-.640625-.195313-7.433593-2.636719-12.414062-7.839844-16.589843-14.746094 20.886718-19.515625 36.09375-45.171875 39.894531-69.523437h10.15625c16.78125 0 30.4375-13.664063 30.4375-30.457032v-15.105468c0-7.691406-2.871094-14.71875-7.589844-20.085938.023437-.304687.035156-.609375.019531-.921875-2.308594-50.875-27.179687-93.914062-68.230468-118.082031-42.617188-25.085938-96.21875-26.0625-143.386719-2.613281-21.628907 10.738281-39.859375 26.613281-52.722657 45.910156-14.246093 21.375-22.023437 46.542969-23.113281 74.808594-.015625.371093.003907.730469.042969 1.085937-4.746094 5.375-7.640625 12.433594-7.640625 20.15625v15.105469c0 16.792969 13.644531 30.457031 30.410156 30.457031h10.21875c3.886719 24.429688 19.222657 50.125 40.226563 69.613282-5.34375 8.554687-11.433594 13.359374-19.46875 15.300781-.535156.050781-1.066406.167969-1.59375.335937-1.921875.363282-3.9375.59375-6.09375.667969-.035156 0-.070313 0-.101563.003906-28.714843 1.347657-48.097656 6.789063-62.84375 17.640625-15.800781 11.625-26.117187 29.570313-32.472656 56.46875-.957031 4.0625 1.554687 8.132813 5.617187 9.09375.585938.136719 1.171876.203125 1.746094.203125 3.425782 0 6.527344-2.34375 7.347656-5.820312 10.476563-44.347657 30.984376-60.117188 81.265626-62.484375 1.371093-.050782 2.691406-.148438 3.980468-.277344 14.175782 22.183594 40.664063 37.515625 73.640625 42.390625.375.054687.746094.082031 1.117188.082031 3.683593 0 6.910156-2.703125 7.464843-6.457031.609376-4.128906-2.242187-7.96875-6.371093-8.578125-26.519531-3.921875-47.976563-15.269531-60.363281-31.632812 8.574218-4.085938 14.46875-10.480469 18.859374-17.164063 9.402344 7.011719 19.578126 12.765625 30.152344 16.699219 10.277344 3.816406 19.421875 5.726562 28.566406 5.726562 9.191407 0 18.378907-1.929687 28.710938-5.789062 10.675781-3.984375 20.949219-9.824219 30.425781-16.949219 3.957031 6.089844 9.136719 11.941406 16.398438 16.078125-9.457031 17.453125-30.429688 29.71875-57.675781 33.332031-4.136719.546875-7.046876 4.347657-6.5 8.484375.503906 3.800782 3.75 6.566406 7.484374 6.566406.328126 0 .664063-.023437 1-.070312 33.183594-4.398438 58.808594-20.367188 70.078126-43.238281 2.425781.425781 4.996093.703125 7.742187.796875 47.789063 2.25 70.917969 18.589844 79.832031 56.375l20.59375 87.304687c1.78125 7.539063.574219 14.027344-3.585937 19.285157-5.101563 6.449218-14.539063 10.457031-24.625 10.457031h-14.261719l-11.101562-45.289063c-.992188-4.050781-5.085938-6.53125-9.140626-5.539062-4.054687.992187-6.53125 5.085937-5.539062 9.140625l10.21875 41.6875h-279.488281l10.242187-41.6875c.996094-4.050781-1.484375-8.144531-5.535156-9.140625-4.054688-.996094-8.144531 1.480468-9.144531 5.535156l-11.125 45.289062h-14.234375c-10.246094 0-19.453125-3.902343-24.632813-10.445312-4.167969-5.261719-5.382812-11.753906-3.605469-19.296875l9.191407-38.980469c.019531-.082031.035156-.160156.050781-.242187l1.519531-7.539063c.824219-4.089844-1.824219-8.074218-5.917969-8.898437-4.089843-.828125-8.074218 1.824219-8.898437 5.914062l-1.496094 7.417969-9.164062 38.863281c-2.84375 12.09375-.605469 23.210938 6.46875 32.148438 8.023437 10.128906 21.664062 16.175781 36.484375 16.175781h20.140625.023437.015625 298.710938.019531.023438 20.167968c14.820313 0 28.457032-6.054688 36.480469-16.191406 7.070313-8.941406 9.296875-20.054688 6.441406-32.136719zm-56.003907-184.644532c0 8.460938-6.875 15.34375-15.320312 15.34375h-9.226563v-45.789062h9.226563c8.445312 0 15.320312 6.878906 15.320312 15.339844zm-197.347656-143.273437c42.578125-21.164063 90.800781-20.378906 128.996094 2.105469 34.054687 20.046875 55.605469 54.855468 60.082031 96.441406-2.265625-.542969-4.625-.835938-7.054688-.835938h-9.503906c-2.136718-30.625-16.886718-56.238281-42.097656-72.695312-33.679688-21.984375-82.542969-25.226562-121.597656-8.058594-35.277344 15.53125-56.472656 44.796875-59.050782 81.011719h-9.519531c-2.449219 0-4.828125.300781-7.109375.847656 4.320313-44.554687 27.816406-79.433593 66.855469-98.816406zm157.554687 100.328125c-63.367187 23.109375-89.675781 13.132812-115.140624 3.476562-14.445313-5.480468-29.210938-11.082031-49.605469-11.082031-8.207031 0-17.320313.90625-27.691407 3.09375 4.078126-39.03125 32.398438-57.363281 49.796876-65.023437 34.566406-15.195313 77.664062-12.429688 107.246093 6.878906 15.429688 10.070312 33.679688 29.007812 35.394531 62.65625zm-232.59375 43.203125v-15.105469c0-8.457031 6.859376-15.339844 15.292969-15.339844h9.253907v45.789063h-9.253907c-8.433593-.003906-15.292969-6.882813-15.292969-15.34375zm159.605469 112.320313c-17.25 6.445312-29.480469 6.460937-46.722656.054687-39.003906-14.515625-73.222656-58.320313-73.222656-93.746094v-50.738281c34.113281-8.003906 52.761719-.945312 72.433593 6.515625 14.828126 5.621094 30.722657 11.652344 53.640626 11.648437 17.40625 0 38.882812-3.496093 66.992187-13.273437v45.847656c0 1.050781-.035156 2.109375-.09375 3.175781-.015625.144532-.019531.289063-.027344.433594-2.199219 34.683594-35.359375 76.035156-73 90.082032zm0 0"/></svg>