<?xml version="1.0" encoding="iso-8859-1"?>
<!-- Generator: Adobe Illustrator 21.0.0, SVG Export Plug-In . SVG Version: 6.00 Build 0)  -->
<svg xmlns="http://www.w3.org/2000/svg" xmlns:xlink="http://www.w3.org/1999/xlink" version="1.1" id="Capa_1" x="0px" y="0px" viewBox="0 0 512 512" style="enable-background:new 0 0 512 512;" xml:space="preserve" width="512" height="512">
<g>
	<path style="fill:#FFCCBC;" d="M504.5,395.04L504.5,395.04c0-12.089-9.8-21.89-21.889-21.89h-7.901   c12.089,0,21.89-9.8,21.89-21.889v0c0-12.089-9.8-21.889-21.89-21.889l-55.341,0v-21.889c0-12.089-9.8-21.889-21.889-21.889   l-32.061,0v0c-27.435,0-52.513,10.095-71.721,26.772c-7.489,6.502-17.169,9.92-27.086,9.921l-91.791,0.002l-1.923,3.331   c-2.376,4.116-7.639,5.526-11.755,3.15l-5.677-3.278L129.9,369.77c-6.974,12.08-17.881,21.402-30.9,26.409   c-2.173-13.778,0.446-27.885,7.421-39.965l5.527-9.574c5.101,1.048,10.516-1.197,13.262-5.954   c2.746-4.757,1.983-10.569-1.474-14.462l2.273-3.936L7.5,322.29V467.79l259.112,0.005c9.918,0,19.597,3.418,27.086,9.921   c19.208,16.677,44.286,26.772,71.721,26.772l89.04,0c12.089,0,21.89-9.8,21.89-21.889v0c0-12.089-9.8-21.889-21.89-21.889h21.89   c12.089,0,21.89-9.8,21.89-21.889v0c0-12.089-9.8-21.889-21.89-21.889h6.262C494.7,416.93,504.5,407.129,504.5,395.04z"/>
	<path style="fill:#FF8A65;" d="M504.5,395.04L504.5,395.04c0-12.089-9.8-21.89-21.889-21.89h-7.901   c12.089,0,21.89-9.8,21.89-21.889v0c0-12.089-9.8-21.889-21.89-21.889h-18.197c0.053,0.623,0.087,1.252,0.087,1.889v0   c0,12.089-9.8,21.889-21.89,21.889h7.901c12.089,0,21.889,9.8,21.889,21.889v0c0,12.089-9.8,21.889-21.889,21.889h-6.262   c12.089,0,21.89,9.8,21.89,21.889v0c0,12.089-9.8,21.889-21.89,21.889h-21.89c12.089,0,21.89,9.8,21.89,21.889v0   c0,12.089-9.8,21.889-21.89,21.889l-89.04,0c-9.634,0-18.976-1.25-27.877-3.587c18.655,14.768,42.236,23.587,67.877,23.587l89.04,0   c12.089,0,21.89-9.8,21.89-21.889v0c0-12.089-9.8-21.889-21.89-21.889h21.89c12.089,0,21.89-9.8,21.89-21.889v0   c0-12.089-9.8-21.889-21.89-21.889h6.262C494.7,416.929,504.5,407.129,504.5,395.04z"/>
	<path style="fill:#FF8A65;" d="M253.698,457.716c-7.489-6.502-17.169-9.92-27.086-9.921L7.5,447.791v19.999l259.112,0.005   c0.238,0,0.474,0.011,0.712,0.015C262.519,464.795,257.963,461.418,253.698,457.716z"/>
	
		<rect x="300.107" y="84.992" transform="matrix(0.866 0.5 -0.5 0.866 105.7507 -149.2295)" style="fill:#FFCA28;" width="62.468" height="75.453"/>
	
		<rect x="354.206" y="116.226" transform="matrix(0.866 0.5 -0.5 0.866 128.6157 -172.0945)" style="fill:#FFCA28;" width="62.468" height="75.453"/>
	<path style="fill:#FFA000;" d="M323.155,74.43l-7.5,12.99l17.947,10.362c7.54,4.353,10.123,13.994,5.77,21.534l-22.345,38.702   l22.5,12.99l37.727-65.344L323.155,74.43z"/>
	<path style="fill:#FFA000;" d="M377.254,105.664l-7.5,12.99l17.947,10.362c7.54,4.353,10.123,13.994,5.77,21.534l-22.345,38.702   l22.5,12.99l37.727-65.344L377.254,105.664z"/>
	<path style="fill:#E0E0E0;" d="M336.798,169.432l-48.639-28.082c-1.508-0.87-3.436-0.354-4.306,1.154l-8.298,14.372   c-0.87,1.508-0.354,3.436,1.154,4.306l48.639,28.082c1.508,0.87,3.436,0.354,4.306-1.154l8.298-14.372   C338.822,172.23,338.306,170.302,336.798,169.432z"/>
	<path style="fill:#E0E0E0;" d="M390.897,200.666l-48.639-28.082c-1.508-0.87-3.436-0.354-4.306,1.154l-8.298,14.372   c-0.87,1.508-0.354,3.436,1.154,4.306l48.639,28.082c1.508,0.87,3.436,0.354,4.306-1.154l8.298-14.372   C392.921,203.464,392.405,201.537,390.897,200.666z"/>
	<path style="fill:#E0E0E0;" d="M385.975,84.255l-48.639-28.082c-1.508-0.87-3.436-0.354-4.306,1.154L324.731,71.7   c-0.87,1.508-0.354,3.436,1.154,4.306l48.639,28.082c1.508,0.87,3.436,0.354,4.306-1.154l8.298-14.372   C387.999,87.054,387.482,85.126,385.975,84.255z"/>
	<path style="fill:#E0E0E0;" d="M440.074,115.49l-48.639-28.082c-1.508-0.87-3.436-0.354-4.306,1.154l-8.298,14.372   c-0.87,1.508-0.354,3.436,1.154,4.306l48.639,28.082c1.508,0.87,3.436,0.354,4.306-1.154l8.298-14.372   C442.098,118.288,441.581,116.36,440.074,115.49z"/>
	<path style="fill:#757575;" d="M460.489,98.898L303.099,8.029c-1.829-1.056-4.168-0.429-5.225,1.4l-8.464,14.659   c-1.056,1.829-0.429,4.168,1.4,5.225l157.39,90.869c1.829,1.056,4.168,0.429,5.225-1.4l8.464-14.659   C462.945,102.293,462.319,99.954,460.489,98.898z"/>
	
		<rect x="243.009" y="101.02" transform="matrix(0.866 0.5 -0.5 0.866 96.1082 -111.6669)" style="fill:#E0E0E0;" width="26.836" height="44.974"/>
	
		<rect x="199.451" y="186.38" transform="matrix(0.866 0.5 -0.5 0.866 127.9947 -79.7803)" style="fill:#E0E0E0;" width="26.836" height="25.143"/>
	<path style="fill:#BDBDBD;" d="M224.001,219.894l-34.834-20.111c-4.116-2.376-9.379-0.966-11.755,3.15l-8.198,14.199   c-0.039,0.068-0.016,0.154,0.052,0.193l49.493,28.575c0.068,0.039,0.154,0.016,0.193-0.052l8.198-14.199   C229.527,227.533,228.116,222.27,224.001,219.894z"/>
	<path style="fill:#BDBDBD;" d="M181.044,311.224l-49.493-28.575c-0.068-0.039-0.154-0.016-0.193,0.052l-8.198,14.199   c-2.376,4.116-0.966,9.379,3.15,11.755l34.834,20.111c4.116,2.376,9.379,0.966,11.755-3.15l8.198-14.199   C181.135,311.35,181.112,311.263,181.044,311.224z"/>
	<path style="fill:#757575;" d="M211.429,241.669l-34.834-20.111c-4.116-2.376-9.379-0.966-11.755,3.15l-3.966,6.87   c-2.376,4.116-0.966,9.379,3.15,11.755l34.834,20.111c4.116,2.376,9.379,0.966,11.755-3.15l3.966-6.87   C216.955,249.308,215.545,244.045,211.429,241.669z"/>
	<path style="fill:#757575;" d="M198.857,263.443l-34.834-20.111c-4.116-2.376-9.379-0.966-11.755,3.15l-3.966,6.87   c-2.376,4.116-0.966,9.379,3.15,11.755l34.834,20.111c4.116,2.376,9.379,0.966,11.755-3.15l3.966-6.87   C204.383,271.083,202.973,265.82,198.857,263.443z"/>
	<path style="fill:#757575;" d="M186.286,285.218l-34.834-20.111c-4.116-2.376-9.379-0.966-11.755,3.15l-3.966,6.87   c-2.376,4.116-0.966,9.379,3.15,11.755l34.834,20.111c4.116,2.376,9.379,0.966,11.755-3.15l3.966-6.87   C191.812,292.857,190.402,287.594,186.286,285.218z"/>
	<path style="fill:#757575;" d="M387.574,225.191L213.868,124.901c-1.829-1.056-4.168-0.429-5.225,1.4l-21.141,36.618   c-1.643,2.846-0.668,6.484,2.178,8.127l63.422,36.617c2.846,1.643,6.484,0.668,8.127-2.178l2.089-3.619   c2.21-3.828,7.105-5.139,10.933-2.929l91.76,52.978c4.37,2.523,9.958,1.026,12.481-3.344l10.482-18.156   C390.03,228.586,389.404,226.247,387.574,225.191z"/>
	<path style="fill:#FFCCBC;" d="M474.71,373.151h-33.452c-12.089,0-21.889-9.8-21.889-21.889v0c0-12.089,9.8-21.889,21.889-21.889   h33.452c12.089,0,21.889,9.8,21.889,21.889v0C496.599,363.35,486.799,373.151,474.71,373.151z"/>
	<path style="fill:#FFCCBC;" d="M476.325,460.708h-33.452c-12.089,0-21.889-9.8-21.889-21.889v0c0-12.089,9.8-21.889,21.889-21.889   h33.452c12.089,0,21.889,9.8,21.889,21.889v0C498.214,450.908,488.414,460.708,476.325,460.708z"/>
	<path style="fill:#FFCCBC;" d="M454.468,504.487h-33.452c-12.089,0-21.889-9.8-21.889-21.889v0c0-12.089,9.8-21.889,21.889-21.889   h33.452c12.089,0,21.889,9.8,21.889,21.889v0C476.357,494.687,466.557,504.487,454.468,504.487z"/>
	<path style="fill:#FFCCBC;" d="M482.611,416.929h-33.452c-12.089,0-21.889-9.8-21.889-21.889v0c0-12.089,9.8-21.889,21.889-21.889   h33.452c12.089,0,21.889,9.8,21.889,21.889v0C504.5,407.129,494.7,416.929,482.611,416.929z"/>
	<path style="fill:#FF8A65;" d="M474.71,329.372h-1.625c2.22,3.424,3.515,7.505,3.515,11.889v0c0,12.089-9.8,21.889-21.89,21.889   h-31.826c3.901,6.016,10.671,10,18.375,10h33.452c12.089,0,21.89-9.8,21.89-21.889v0   C496.599,339.172,486.799,329.372,474.71,329.372z"/>
	<path style="fill:#FF8A65;" d="M476.325,416.929H474.7c2.22,3.424,3.515,7.505,3.515,11.889v0c0,12.089-9.8,21.889-21.89,21.889   h-31.826c3.901,6.016,10.671,10,18.375,10h33.452c12.089,0,21.89-9.8,21.89-21.889v0   C498.214,426.73,488.414,416.929,476.325,416.929z"/>
	<path style="fill:#FF8A65;" d="M454.468,460.708h-1.625c2.22,3.424,3.515,7.505,3.515,11.889c0,12.089-9.8,21.889-21.89,21.889   h-31.826c3.901,6.016,10.671,10,18.375,10h33.452c12.089,0,21.89-9.8,21.89-21.889S466.557,460.708,454.468,460.708z"/>
	<path style="fill:#FF8A65;" d="M482.611,373.15h-1.625c2.22,3.424,3.515,7.505,3.515,11.889v0c0,12.089-9.8,21.889-21.889,21.889   h-31.826c3.901,6.016,10.671,10,18.375,10h33.452c12.089,0,21.889-9.8,21.889-21.889v0C504.5,382.951,494.7,373.15,482.611,373.15z   "/>
	<path style="fill:#E0E0E0;" d="M131.986,311.933l-8.25,14.29c3.457,3.893,4.221,9.706,1.474,14.462   c-2.746,4.757-8.161,7.002-13.262,5.954l-5.527,9.574c-6.974,12.08-9.594,26.187-7.421,39.965   c13.019-5.007,23.926-14.329,30.9-26.409l25.565-44.281L131.986,311.933z"/>
	<path style="fill:#EF5350;" d="M179.405,396.298c-0.805-0.653-0.805-1.862,0-2.516c7.041-5.714,11.389-14.614,10.833-24.509   c-0.812-14.451-12.276-26.31-26.695-27.567c-8.053-0.702-15.502,1.851-21.185,6.486L129.9,369.77   c-6.961,12.056-17.84,21.364-30.825,26.378c0.249,2.48,1.335,4.893,3.26,6.775l37.748,36.906l0-0.001   c5.889,5.919,14.283,9.344,23.46,8.545c14.419-1.256,25.882-13.116,26.694-27.567C190.794,410.912,186.446,402.011,179.405,396.298   z"/>
	<path d="M512,395.04c0-10.757-5.813-20.178-14.459-25.3c15.455-19.058,1.917-47.868-22.831-47.868h-47.841v-14.39   c0-16.205-13.185-29.389-29.39-29.389l-32.061,0c-28.173,0-55.391,10.16-76.638,28.608c-6.005,5.213-13.878,8.084-22.169,8.084   l-78.825,0.001c0.489-0.972,0.77-2.039,0.816-3.121c1.317-1.152,2.461-2.513,3.361-4.073c2.59-5.218,6.396-8.709,6.102-15.579   c2.615-1.367,4.888-3.458,6.469-6.196c2.526-5.13,6.382-8.645,6.091-15.572c2.619-1.367,4.897-3.46,6.48-6.203   c3.156-5.834,4.986-7.627,5.807-11.815c2.759-1.75,2.752-3.518,10.732-16.83c4.286-7.423,2.03-16.891-5.216-21.563l5.091-8.818   l15.831,9.14c6.438,3.717,14.656,1.516,18.373-4.923c1.874-2.917,2.009-4.244,2.776-3.802l51.022,29.458   c3.588,2.071,8.175,0.841,10.245-2.745c2.071-3.587,0.842-8.174-2.745-10.245l-51.021-29.457   c-7.418-4.286-16.894-1.748-21.179,5.674l-1.313,2.275l-20.983-12.114c0,0,0,0-0.001,0c-12.939-7.47-31.86-18.394-39.753-22.951   l18.529-32.092c34.846,20.119,134.452,77.626,167.34,96.614l-8.645,14.972c-0.452,0.781-1.456,1.05-2.235,0.6l-10.428-6.021   c-3.589-2.072-8.175-0.842-10.245,2.745c-2.071,3.587-0.842,8.174,2.745,10.245l10.428,6.021c7.97,4.603,18.153,1.827,22.726-6.089   l10.483-18.158c2.906-5.036,1.488-11.396-3.087-14.769c0.061-0.106,48.591-84.239,53.207-92.157   c5.365,2.344,11.492,0.208,14.33-4.706l8.465-14.661c3.12-5.407,1.26-12.346-4.146-15.468L353.952,28.729   c-3.59-2.073-8.176-0.842-10.245,2.745c-2.071,3.587-0.842,8.174,2.745,10.245l107.104,61.837l-4.788,8.293   c-26.647-15.384-135.263-78.094-151.024-87.193l4.788-8.293l13.609,7.857c3.587,2.071,8.174,0.842,10.245-2.745   c2.071-3.587,0.842-8.174-2.745-10.245l-16.793-9.695c-5.431-3.134-12.347-1.267-15.469,4.145l-8.463,14.658   c-3.131,5.418-1.278,12.341,4.144,15.471l8.505,4.91l-30.64,53.07l-5.126-2.959c-3.584-2.072-8.173-0.842-10.245,2.745   l-18.737,32.453l-13.2-7.621c-5.408-3.121-12.347-1.263-15.469,4.146l-21.141,36.618c-3.718,6.437-1.516,14.655,4.922,18.373   l11.359,6.558l-5.091,8.818c-7.654-3.93-16.988-1.172-21.282,6.265c-7.657,13.8-9.082,14.458-9.21,17.709   c-3.216,2.805-3.854,5.286-7.328,10.935c-1.551,2.686-2.267,5.692-2.136,8.717c-2.613,1.367-4.888,3.451-6.469,6.188   c-2.535,5.148-6.38,8.64-6.091,15.567c-2.685,1.4-4.93,3.522-6.481,6.208c-3.216,5.934-4.993,7.662-5.813,11.819   c-2.738,1.741-2.569,3.218-10.726,16.826c-4.28,7.415-1.961,16.839,5.102,21.486l-0.087,0.15L7.5,314.79   c-4.142,0-7.5,3.358-7.5,7.5v145.5c0,4.142,3.358,7.5,7.5,7.5l86.357,0.001c4.142,0,7.5-3.358,7.5-7.5s-3.358-7.5-7.5-7.5   L15,460.29v-130.5l102.162-0.002c0.27,0.498,0.578,0.98,0.966,1.416c3.142,3.538-0.044,9.049-4.67,8.09   c-3.165-0.649-6.39,0.8-8.004,3.597c-2.09,5.007-18.632,24.203-13.862,54.457c0.654,4.147,2.463,7.968,5.501,10.939l37.712,36.871   c22.466,22.515,61.142,7.726,62.921-23.93c0.54-9.607-2.722-19.006-8.898-26.188c17.282-20.094,8.345-51.046-16.543-59.156   c2.744-1.283,5.147-3.351,6.847-6.097l87.48-0.001c11.904,0,23.27-4.175,32.003-11.757c18.52-16.08,42.244-24.935,66.804-24.935   l32.061,0c7.935,0,14.39,6.455,14.39,14.389v74.003c0,7.935-6.455,14.39-14.39,14.39s-14.39-6.455-14.39-14.39v-48.727   c0-4.142-3.357-7.5-7.5-7.5s-7.5,3.358-7.5,7.5c0,12.102-9.846,21.947-21.947,21.947s-21.946-9.846-21.946-21.947   c0-4.142-3.357-7.5-7.5-7.5s-7.5,3.358-7.5,7.5c0,20.373,16.574,36.947,36.946,36.947c8.212,0,15.807-2.693,21.947-7.242v19.021   c0,27.484,34.632,39.937,52.123,18.604c0.926,5.323,3.287,10.157,6.671,14.09c-13.27,8.641-17.184,25.905-9.489,39.26   c-20.734,2.561-32.191,25.463-21.99,43.548h-29.986c-24.56,0-48.284-8.855-66.804-24.936c-8.733-7.582-20.099-11.757-32.003-11.757   l-137.755-0.003c-4.142,0-7.5,3.358-7.5,7.5s3.358,7.5,7.5,7.5l137.755,0.003c8.291,0,16.164,2.871,22.169,8.083   c21.247,18.449,48.465,28.609,76.638,28.609h89.049c16.205,0,29.39-13.184,29.39-29.39c0-5.321-1.428-10.311-3.911-14.621   c14.502-1.791,25.768-14.18,25.768-29.158c0-7.306-2.686-13.993-7.114-19.139C506.657,414.433,512,405.351,512,395.04z    M295.674,137.029L325.9,84.675c13.072,7.547,28.036,16.187,41.109,23.734l-5.075,8.791l-20.554-11.867   c-3.589-2.073-8.175-0.842-10.245,2.745c-2.071,3.587-0.842,8.174,2.745,10.245l20.554,11.867   c-1.775,3.074-3.301,5.717-5.076,8.791l-20.554-11.867c-3.59-2.073-8.175-0.842-10.245,2.745   c-2.071,3.587-0.842,8.174,2.745,10.245l20.554,11.867l-5.076,8.791C323.71,153.216,308.746,144.576,295.674,137.029z    M387.979,149.557l20.554,11.867l-5.076,8.791l-20.555-11.867c-3.589-2.072-8.175-0.842-10.245,2.745   c-2.071,3.587-0.842,8.174,2.745,10.245l20.555,11.867l-5.076,8.791c-13.072-7.547-28.037-16.187-41.109-23.735   c9.902-17.151,21.644-37.488,30.226-52.354c5.827,3.364,35.265,20.36,41.109,23.734l-5.076,8.791l-20.554-11.867   c-3.589-2.072-8.175-0.842-10.245,2.745C383.162,142.9,384.392,147.486,387.979,149.557z M338.323,188.095l3.95-6.842   c13.07,7.546,28.039,16.188,41.109,23.734l-3.95,6.841C374.659,209.074,341.584,189.978,338.323,188.095z M432.559,119.811   l-3.95,6.841l-41.109-23.734c0.058-0.1,4.106-7.113,3.95-6.842C402.309,102.347,413.331,108.71,432.559,119.811z M378.459,88.576   l-3.95,6.842c-13.018-7.516-28.09-16.218-41.108-23.734l3.95-6.841C343.215,68.228,363.384,79.873,378.459,88.576z    M288.174,150.019l41.108,23.734l-3.95,6.842l-41.108-23.734L288.174,150.019z M308.556,48.218l15.805,9.125   c-2.251,3.938,4.19-7.258-53.127,92.018l-4.184-2.415l18.736-32.454c2.071-3.587,0.842-8.174-2.745-10.245l-5.125-2.959   L308.556,48.218z M258.796,107.569l10.25,5.918l-14.987,25.959l-10.251-5.918L258.796,107.569z M147.702,271.602l34.833,20.111   c0.531,0.307,0.711,0.981,0.405,1.51l-3.967,6.871c-0.305,0.529-0.979,0.71-1.509,0.404l-34.834-20.112   c-0.535-0.308-0.708-0.985-0.404-1.509l3.966-6.87C146.489,271.493,147.155,271.286,147.702,271.602z M154.797,257.102l3.966-6.87   c0.303-0.525,0.976-0.713,1.51-0.405l34.833,20.111c0,0,0,0,0,0c0.527,0.305,0.709,0.982,0.404,1.51l-3.966,6.869   c-0.305,0.529-0.981,0.709-1.51,0.405l-34.833-20.111C154.674,258.307,154.493,257.629,154.797,257.102z M167.369,235.327   l3.967-6.87c0.303-0.525,0.974-0.711,1.507-0.405l34.836,20.113c0.528,0.305,0.709,0.982,0.404,1.51l-3.966,6.87   c-0.304,0.528-0.982,0.709-1.51,0.404l-34.833-20.111C167.246,236.532,167.064,235.855,167.369,235.327z M130.06,302.161   c-0.528-0.305-0.71-0.982-0.405-1.51l4.519-7.827c51.524,29.747,17.036,9.836,36.748,21.216l-4.519,7.827   c-0.305,0.529-0.982,0.71-1.51,0.405C121.625,297.291,174.467,327.8,130.06,302.161z M215.459,206.302l-0.23-0.133l-10.02-5.785   l5.071-8.784l10.251,5.918L215.459,206.302z M183.907,206.683c0.305-0.528,0.978-0.713,1.51-0.405   c12.19,7.038,22.644,13.073,34.833,20.111c0.529,0.306,0.711,0.979,0.405,1.51l-4.519,7.827   c-38.66-22.32-28.449-16.425-36.748-21.216L183.907,206.683z M116.172,354.325c13.788-1.184,22.188-15.775,16.331-28.286   l2.229-3.86l10.489,6.056l-21.815,37.785c-4.31,7.464-10.383,13.762-17.592,18.359C106.553,367.547,114.62,357.668,116.172,354.325   z M174.68,387.958c-4.517,3.666-4.492,10.519,0,14.164c5.529,4.487,8.471,11.145,8.07,18.265   c-1.057,18.827-24.059,27.513-37.349,14.154c-0.024-0.024-0.049-0.049-0.074-0.073l-35.726-34.929   c11.106-6,20.445-15.02,26.795-26.018l11.687-20.242c4.264-3.1,9.466-4.564,14.81-4.101   C182.152,350.855,190.062,375.476,174.68,387.958z M449.159,380.651h33.451c7.935,0,14.39,6.455,14.39,14.39   c0,7.934-6.455,14.389-14.39,14.389h-33.451c-7.935,0-14.39-6.455-14.39-14.39C434.77,387.106,441.225,380.651,449.159,380.651z    M474.71,336.872c7.935,0,14.39,6.455,14.39,14.389c0,7.935-6.455,14.39-14.39,14.39h-33.452c-7.934,0-14.389-6.455-14.389-14.39   c0-7.934,6.455-14.389,14.389-14.389H474.71z M454.468,496.987h-33.451c-7.935,0-14.39-6.455-14.39-14.39s6.455-14.39,14.39-14.39   h33.451c7.935,0,14.39,6.455,14.39,14.39S462.402,496.987,454.468,496.987z M476.325,453.208h-33.452   c-7.935,0-14.39-6.455-14.39-14.389c0-7.935,6.455-14.39,14.39-14.39h33.452c7.934,0,14.389,6.455,14.389,14.39   C490.714,446.753,484.259,453.208,476.325,453.208z"/>
</g>















</svg>
